<svg width="1440" height="1024" viewBox="0 0 1440 1024" fill="none" xmlns="http://www.w3.org/2000/svg">
<path d="M1912 924C1912 1204.01 1378.32 1431 720 1431C61.6766 1431 -472 1204.01 -472 924C-472 643.992 61.6766 417 720 417C1378.32 417 1912 643.992 1912 924Z" fill="#7422FF"/>
<path d="M600 -103C600 154.917 381.963 364 113 364C-155.962 364 -374 154.917 -374 -103C-374 -360.917 -155.962 -570 113 -570C381.963 -570 600 -360.917 600 -103Z" fill="#7422FF"/>
<path d="M600 -103C600 154.917 381.963 364 113 364C-155.962 364 -374 154.917 -374 -103C-374 -360.917 -155.962 -570 113 -570C381.963 -570 600 -360.917 600 -103Z" fill="#7422FF"/>
</svg>
